<svg xmlns="http://www.w3.org/2000/svg" version="1.1" xmlns:xlink="http://www.w3.org/1999/xlink" xmlns:svgjs="http://svgjs.dev/svgjs" viewBox="0 0 800 400"><path d="M-0.4331514537334442,282.6453857421875C23.158487781882286,266.07151285807294,108.56619259218374,186.6363728841146,141.11668395996094,183.2021484375C173.66717532773814,179.7679239908854,169.78501637776694,256.21678670247394,194.8697967529297,262.0400390625C219.95457712809244,267.86329142252606,267.2871576944987,219.63480631510416,291.6253662109375,218.14166259765625C315.9635747273763,216.64851888020834,320.8909454345703,252.7825469970703,340.8990478515625,253.0811767578125C360.9071502685547,253.3798065185547,391.66587829589844,221.1279525756836,411.6739807128906,219.93344116210938C431.6820831298828,218.73892974853516,442.28339131673175,244.42096710205078,460.9476623535156,245.9141082763672C479.6119333902995,247.4072494506836,504.24876403808594,230.6840591430664,523.6596069335938,228.8922882080078C543.0704498291016,227.10051727294922,534.7088623046875,236.50731150309244,577.4127197265625,235.16348266601562C620.1165771484375,233.8196538289388,743.1514689127604,226.9511973063151,779.8827514648438,220.82931518554688C816.6140340169271,214.70743306477866,794.8141377766927,202.16504414876303,797.8004150390625,198.43218994140625" fill="none" stroke-width="25" stroke="url(&quot;#SvgjsLinearGradient1001&quot;)" stroke-linecap="round"></path><defs><linearGradient id="SvgjsLinearGradient1001"><stop stop-color="hsl(335, 77%, 60%)" offset="0"></stop><stop stop-color="hsl(335, 77%, 80%)" offset="1"></stop></linearGradient></defs></svg>