<svg xmlns="http://www.w3.org/2000/svg" version="1.1" xmlns:xlink="http://www.w3.org/1999/xlink" xmlns:svgjs="http://svgjs.dev/svgjs" viewBox="0 0 800 800"><defs><linearGradient x1="50%" y1="0%" x2="50%" y2="100%" id="ccchaos-grad"><stop stop-color="hsl(206, 75%, 49%)" stop-opacity="1" offset="0%"></stop><stop stop-color="hsl(331, 90%, 56%)" stop-opacity="1" offset="100%"></stop></linearGradient></defs><g stroke-width="2" stroke="url(#ccchaos-grad)" fill="none" stroke-linecap="round"><path d="M378.7 114.94C388.07 110.57 397.4 107.06 406.66 104.73 415.93 103.34 425.15 103.59 434.32 105.5 443.53 108.62 452.71 113.25 461.87 119.13 471.1 125.66 480.34 132.9 489.6 140.51 498.97 147.9 508.4 155.14 517.88 162.03 527.51 168.09 537.22 173.6 547 178.56 556.94 182.61 566.95 186.24 576.99 189.61 587.15 192.4 597.29 195.23 607.36 198.27 617.44 201.2 627.33 204.61 636.95 208.61 646.4 212.84 655.41 217.8 663.86 223.49 671.92 229.56 679.24 236.36 685.69 243.81 691.53 251.63 696.34 260.02 700.01 268.86 702.93 277.98 704.64 287.44 705.09 297.13 704.81 306.99 703.33 316.99 700.68 327.03 697.52 337.15 693.4 347.25 688.44 357.25 683.37 367.28 677.78 377.16 671.83 386.84 666.27 396.52 660.81 405.74 655.61 414.5 651.17 423.25 647.14 431.55 643.59 439.41 640.92 447.3 638.71 454.82 636.93 462.02 635.95 469.36 635.25 476.51 634.74 483.57 634.77 490.97 634.78 498.49 634.65 506.26 634.77 514.61 634.54 523.43 633.87 532.83 633.19 542.98 631.91 553.83 629.98 565.36 627.85 577.53 625 590.21 621.41 603.2 617.54 616.24 612.92 629.05 607.6 641.21 601.99 652.44 595.71 662.27 588.82 670.24 581.69 676.37 574.02 680.14 565.86 681.38 557.54 680.67 548.82 677.71 539.74 672.85 530.57 667.26 521.12 660.96 511.44 654.71 501.71 649.84 491.8 646.45 481.76 645.15 471.7 646.8 461.53 651.05 451.28 657.78 441.04 666.92 430.73 677.43 420.37 688.36 410.02 699.08 399.86 707.94 389.92 714.15 379.96 717.69 370.2 717.67 360.64 714.14 351.05 707.77 341.64 698.62 332.43 687.42 323.16 675.17 314.07 662.37 305.15 649.82 296.17 638.3 287.35 628.11 278.7 619.58 269.97 613.11 261.41 608.42 253.02 605.32 244.56 603.99 236.28 603.63 228.19 603.82 220.06 604.74 212.13 605.45 204.45 605.58 196.74 605.47 189.31 604.3 182.18 601.92 175.08 598.81 168.32 594.38 161.93 588.72 155.63 582.29 149.75 574.77 144.32 566.35 139.02 557.37 134.21 547.73 129.93 537.62 125.81 527.2 122.24 516.51 119.24 505.7 116.42 494.78 114.19 483.85 112.56 473.02 111.09 462.18 110.22 451.48 109.96 440.99 109.83 430.5 110.28 420.23 111.33 410.21 112.45 400.19 114.09 390.62 116.22 381.51 118.34 372.37 120.9 363.64 123.86 355.29 126.75 346.87 130 338.76 133.57 330.93 137.01 322.94 140.75 315.13 144.76 307.44 148.6 299.48 152.71 291.52 157.04 283.5 161.2 275.1 165.6 266.54 170.22 257.76 174.68 248.56 179.39 239.13 184.33 229.5 189.14 219.56 194.21 209.54 199.54 199.55 204.78 189.59 210.31 179.95 216.12 170.83 221.88 162.2 227.95 154.42 234.32 147.71 240.66 141.89 247.32 137.32 254.28 134.09 261.25 131.74 268.52 130.6 276.07 130.53 283.64 130.81 291.49 131.67 299.59 132.83 307.71 133.47 316.08 133.83 324.68 133.66 333.28 132.32 342.1 130.22 351.11 127.38 360.12 123.48 369.32 119.23 378.69 114.95" stroke-dasharray="9 5" transform="rotate(0, 400, 400)" opacity="0.43"></path><path d="M380.39 125.97C389.43 121.64 398.47 118.13 407.47 115.71 416.48 114.18 425.49 114.17 434.47 115.75 443.48 118.48 452.5 122.69 461.52 128.15 470.61 134.33 479.73 141.28 488.87 148.72 498.12 156.08 507.42 163.43 516.77 170.54 526.25 176.98 535.79 182.94 545.38 188.4 555.08 192.99 564.82 197.15 574.54 200.96 584.34 204.12 594.08 207.19 603.68 210.31 613.25 213.16 622.59 216.34 631.61 219.94 640.43 223.61 648.78 227.87 656.55 232.76 663.93 237.9 670.57 243.71 676.36 250.14 681.58 256.87 685.82 264.17 688.98 271.96 691.47 280 692.83 288.44 693.03 297.18 692.59 306.08 691.04 315.2 688.43 324.44 685.38 333.76 681.44 343.14 676.74 352.51 671.95 361.9 666.67 371.23 661.05 380.44 655.78 389.66 650.57 398.52 645.58 407.04 641.25 415.55 637.28 423.74 633.71 431.63 630.94 439.57 628.57 447.29 626.58 454.84 625.32 462.57 624.32 470.26 623.5 478.02 623.22 486.11 622.93 494.44 622.54 503.11 622.43 512.3 622.03 521.97 621.27 532.19 620.55 542.97 619.31 554.31 617.5 566.14 615.57 578.32 612.98 590.74 609.74 603.15 606.27 615.32 602.13 626.95 597.32 637.66 592.27 647.29 586.59 655.37 580.32 661.57 573.83 666.02 566.81 668.26 559.31 668.24 551.65 666.6 543.57 663.1 535.13 658.09 526.59 652.71 517.74 646.95 508.63 641.47 499.48 637.47 490.1 634.97 480.56 634.46 471 636.67 461.3 641.23 451.49 647.98 441.67 656.87 431.76 666.94 421.77 677.34 411.78 687.53 401.96 696.05 392.31 702.15 382.65 705.88 373.16 706.36 363.84 703.61 354.5 698.2 345.32 690.11 336.3 679.94 327.25 668.57 318.35 656.42 309.6 644.18 300.81 632.62 292.17 622.02 283.68 612.75 275.14 605.24 266.75 599.31 258.53 594.9 250.26 592.19 242.17 590.58 234.27 589.72 226.34 589.81 218.61 589.99 211.13 589.94 203.65 589.97 196.44 589.25 189.53 587.63 182.66 585.53 176.13 582.33 169.97 578.02 163.9 573.09 158.24 567.1 153.03 560.19 147.95 552.76 143.35 544.57 139.26 535.8 135.34 526.69 131.94 517.18 129.1 507.4 126.44 497.46 124.35 487.38 122.84 477.27 121.5 467.11 120.73 456.99 120.55 446.96 120.5 436.94 121.02 427.04 122.11 417.3 123.27 407.56 124.94 398.2 127.08 389.2 129.21 380.18 131.77 371.48 134.7 363.07 137.57 354.58 140.79 346.32 144.31 338.25 147.72 330.01 151.41 321.86 155.35 313.76 159.14 305.4 163.18 296.98 167.43 288.46 171.52 279.62 175.83 270.61 180.36 261.42 184.73 251.92 189.32 242.26 194.14 232.5 198.82 222.59 203.74 212.74 208.91 203.07 213.98 193.59 219.31 184.55 224.91 176.17 230.44 168.37 236.26 161.5 242.36 155.72 248.42 150.79 254.79 147.08 261.43 144.6 268.06 142.88 274.98 142.22 282.18 142.47 289.38 142.93 296.85 143.82 304.58 144.88 312.31 145.36 320.3 145.49 328.52 145.09 336.73 143.56 345.18 141.3 353.83 138.36 362.47 134.45 371.33 130.21 380.38 125.97" stroke-dasharray="4 0" transform="rotate(4.04, 400, 400)" opacity="0.81"></path><path d="M382.73 137C391.46 132.72 400.21 129.21 408.96 126.73 417.72 125.05 426.49 124.81 435.26 126.06 444.07 128.41 452.91 132.18 461.76 137.21 470.67 142.98 479.62 149.6 488.61 156.79 497.68 164.04 506.8 171.39 515.96 178.65 525.22 185.37 534.53 191.72 543.85 197.63 553.25 202.76 562.65 207.45 572 211.76 581.38 215.39 590.65 218.83 599.75 222.19 608.77 225.18 617.53 228.33 625.92 231.75 634.1 235.1 641.79 238.9 648.88 243.2 655.6 247.63 661.59 252.63 666.75 258.2 671.38 263.98 675.09 270.32 677.79 277.14 679.88 284.17 680.93 291.63 680.92 299.44 680.34 307.4 678.75 315.64 676.19 324.08 673.25 332.59 669.51 341.25 665.07 349.99 660.55 358.75 655.58 367.54 650.27 376.33 645.28 385.12 640.33 393.69 635.53 402.03 631.34 410.39 627.43 418.55 623.86 426.55 621.01 434.63 618.51 442.61 616.34 450.57 614.84 458.72 613.57 466.95 612.47 475.35 611.88 484.07 611.3 493.08 610.66 502.46 610.31 512.26 609.73 522.5 608.84 533.19 608.04 544.26 606.8 555.7 605.07 567.4 603.26 579.2 600.88 590.97 597.92 602.46 594.79 613.46 591.03 623.7 586.68 632.82 582.12 640.78 576.97 647.15 571.26 651.66 565.36 654.59 558.94 655.52 552.05 654.47 545.02 652.15 537.56 648.32 529.73 643.36 521.8 638.33 513.54 633.19 505 628.52 496.42 625.38 487.58 623.73 478.55 623.94 469.5 626.65 460.28 631.45 450.91 638.19 441.54 646.82 432.04 656.43 422.44 666.31 412.84 676 403.36 684.16 394.03 690.14 384.69 694.02 375.48 694.94 366.42 692.9 357.35 688.4 348.41 681.33 339.62 672.2 330.8 661.77 322.11 650.37 313.57 638.62 304.99 627.21 296.55 616.43 288.25 606.65 279.92 598.3 271.73 591.32 263.71 585.72 255.65 581.7 247.77 578.82 240.08 576.8 232.38 575.86 224.88 575.26 217.63 574.71 210.39 574.49 203.42 573.85 196.75 572.58 190.13 571.1 183.85 568.73 177.93 565.45 172.11 561.7 166.69 557.01 161.71 551.42 156.86 545.39 152.47 538.58 148.59 531.11 144.86 523.32 141.65 515.02 138.98 506.33 136.48 497.46 134.53 488.33 133.15 479.03 131.92 469.66 131.25 460.21 131.15 450.74 131.18 441.26 131.76 431.79 132.89 422.37 134.09 412.95 135.78 403.8 137.91 394.91 140.05 385.99 142.59 377.3 145.5 368.8 148.35 360.23 151.53 351.79 155.01 343.45 158.37 334.96 162.01 326.5 165.89 318.01 169.62 309.31 173.59 300.52 177.77 291.62 181.79 282.47 186.03 273.18 190.46 263.77 194.74 254.17 199.24 244.5 203.94 234.85 208.51 225.2 213.3 215.73 218.32 206.59 223.24 197.76 228.4 189.49 233.8 181.97 239.13 175.08 244.73 169.15 250.59 164.3 256.4 160.25 262.49 157.33 268.84 155.53 275.17 154.37 281.78 154.1 288.66 154.58 295.52 155.14 302.65 155.99 310.03 156.92 317.4 157.2 325.03 157.1 332.89 156.47 340.75 154.74 348.84 152.34 357.15 149.32 365.45 145.4 373.98 141.19 382.72 137" stroke-dasharray="11 8" transform="rotate(8.08, 400, 400)" opacity="0.23"></path><path d="M385.65 148.02C394.08 143.81 402.55 140.32 411.03 137.78 419.53 135.98 428.06 135.51 436.6 136.44 445.19 138.41 453.81 141.75 462.45 146.32 471.15 151.65 479.9 157.88 488.67 164.76 497.52 171.8 506.41 179.08 515.32 186.38 524.3 193.29 533.31 199.94 542.3 206.24 551.35 211.86 560.35 217.07 569.27 221.89 578.18 226.05 586.94 229.94 595.49 233.68 603.94 236.96 612.09 240.27 619.85 243.73 627.38 246.99 634.41 250.56 640.85 254.5 646.92 258.45 652.29 262.88 656.86 267.79 660.95 272.82 664.16 278.35 666.44 284.36 668.18 290.51 668.95 297.1 668.76 304.07 668.06 311.16 666.45 318.57 663.96 326.26 661.15 334.01 657.6 341.98 653.41 350.13 649.17 358.28 644.49 366.58 639.49 374.99 634.78 383.39 630.07 391.71 625.48 399.92 621.43 408.16 617.6 416.33 614.05 424.47 611.15 432.69 608.54 440.94 606.21 449.28 604.5 457.78 602.98 466.47 601.63 475.37 600.75 484.55 599.9 494.03 599.01 503.86 598.42 513.98 597.64 524.45 596.61 535.23 595.7 546.21 594.41 557.37 592.71 568.56 590.98 579.63 588.75 590.43 586.01 600.71 583.14 610.35 579.71 619.05 575.74 626.53 569.26 635.21 553.41 642.09 544.15 640.18 537.7 637.41 530.83 633.46 523.57 628.72 516.23 624.16 508.55 619.71 500.57 615.87 492.54 613.58 484.25 612.71 475.73 613.59 467.19 616.73 458.45 621.73 449.54 628.42 440.62 636.75 431.55 645.92 422.35 655.28 413.15 664.47 404.04 672.27 395.05 678.12 386.05 682.1 377.15 683.41 368.38 682.01 359.6 678.37 350.93 672.29 342.38 664.18 333.82 654.74 325.37 644.17 317.06 633.04 308.72 621.96 300.5 611.21 292.42 601.15 284.32 592.2 276.36 584.38 268.57 577.75 260.75 572.54 253.1 568.43 245.65 565.24 238.2 563.16 230.95 561.6 223.95 560.31 216.98 559.54 210.27 558.62 203.86 557.33 197.51 556.07 191.49 554.16 185.83 551.53 180.27 548.63 175.1 544.91 170.36 540.39 165.75 535.53 161.59 529.91 157.92 523.61 154.4 517.04 151.38 509.89 148.88 502.27 146.55 494.48 144.74 486.31 143.48 477.87 142.37 469.35 141.8 460.62 141.77 451.75 141.88 442.87 142.5 433.88 143.66 424.82 144.9 415.76 146.6 406.85 148.73 398.08 150.86 389.3 153.38 380.64 156.26 372.07 159.08 363.45 162.22 354.87 165.64 346.32 168.96 337.65 172.54 328.95 176.36 320.19 180.04 311.27 183.94 302.25 188.05 293.14 192.01 283.87 196.17 274.51 200.52 265.1 204.72 255.62 209.13 246.18 213.73 236.87 218.19 227.69 222.87 218.82 227.75 210.38 232.53 202.34 237.54 194.96 242.77 188.37 247.92 182.43 253.32 177.45 258.96 173.5 264.54 170.28 270.39 168.08 276.48 166.88 282.54 166.16 288.87 166.2 295.44 166.84 302 167.42 308.81 168.18 315.87 168.93 322.92 168.99 330.21 168.65 337.75 167.78 345.27 165.87 353.03 163.34 361.01 160.25 368.99 156.32 377.2 152.16 385.64 148.03" stroke-dasharray="4 4" transform="rotate(12.12, 400, 400)" opacity="0.82"></path><path d="M389.05 159.05C397.18 154.91 405.36 151.45 413.58 148.87 421.8 146.95 430.07 146.27 438.38 146.9 446.71 148.49 455.08 151.4 463.49 155.5 471.94 160.37 480.43 166.16 488.95 172.66 497.52 179.43 506.12 186.53 514.73 193.77 523.38 200.77 532.03 207.62 540.64 214.21 549.27 220.24 557.83 225.92 566.27 231.24 574.67 235.93 582.89 240.34 590.87 244.53 598.72 248.22 606.25 251.85 613.38 255.51 620.26 258.88 626.65 262.44 632.45 266.25 637.91 269.97 642.68 274.05 646.71 278.52 651.67 285.49 656.64 301.72 656.55 310.94 655.78 317.27 654.17 323.98 651.76 331.01 649.07 338.08 645.72 345.43 641.78 353.04 637.8 360.66 633.41 368.51 628.72 376.57 624.27 384.63 619.81 392.72 615.43 400.82 611.52 408.94 607.79 417.12 604.28 425.36 601.35 433.68 598.65 442.13 596.19 450.73 594.29 459.47 592.57 468.44 590.98 477.64 589.85 487.04 588.74 496.72 587.61 506.67 586.78 516.79 585.8 527.15 584.62 537.66 583.57 548.19 582.22 558.71 580.51 569.06 578.8 579.11 576.67 588.69 574.08 597.58 571.42 605.74 568.26 612.86 564.6 618.72 558.68 625.09 544.19 628.4 535.7 625.53 529.78 622.52 523.45 618.65 516.74 614.26 509.95 610.27 502.82 606.56 495.38 603.55 487.89 602.06 480.13 601.94 472.12 603.4 464.08 606.91 455.83 612.05 447.38 618.65 438.93 626.68 430.3 635.4 421.52 644.25 412.74 652.95 404.01 660.39 395.37 666.08 386.73 670.12 378.16 671.77 369.7 670.96 361.23 668.11 352.85 662.97 344.58 655.87 336.3 647.43 328.12 637.76 320.06 627.35 311.99 616.77 304.03 606.24 296.2 596.13 288.36 586.82 280.66 578.39 273.11 570.94 265.57 564.71 258.18 559.49 250.99 555.16 243.82 551.93 236.85 549.31 230.12 547.12 223.43 545.58 217 544.09 210.87 542.48 204.81 541.08 199.07 539.26 193.68 536.93 188.39 534.5 183.49 531.41 179 527.65 174.64 523.67 170.72 518.99 167.26 513.67 163.95 508.13 161.12 502 158.8 495.35 156.63 488.55 154.97 481.31 153.83 473.69 152.84 466 152.36 458.01 152.41 449.77 152.58 441.5 153.26 433.02 154.44 424.36 155.7 415.71 157.4 407.07 159.52 398.49 161.64 389.89 164.14 381.31 166.97 372.75 169.75 364.15 172.85 355.52 176.21 346.86 179.48 338.13 183 329.32 186.75 320.45 190.38 311.48 194.22 302.43 198.25 293.32 202.15 284.14 206.23 274.94 210.51 265.77 214.63 256.65 218.95 247.66 223.45 238.91 227.82 230.39 232.39 222.27 237.16 214.68 241.81 207.55 246.68 201.11 251.76 195.5 256.75 190.51 261.97 186.44 267.42 183.35 272.8 180.87 278.42 179.3 284.28 178.6 290.1 178.24 296.17 178.49 302.47 179.19 308.75 179.73 315.27 180.36 322.04 180.88 328.78 180.71 335.77 180.12 342.99 179.02 350.2 176.94 357.65 174.29 365.33 171.14 373 167.23 380.9 163.12 389.04 159.06" stroke-dasharray="10 11" transform="rotate(16.16, 400, 400)" opacity="0.38"></path><path d="M392.81 170.08C400.65 166.02 408.54 162.6 416.47 159.99 424.42 157.97 432.41 157.1 440.44 157.45 448.49 158.68 456.59 161.15 464.72 164.77 472.88 169.16 481.08 174.48 489.29 180.54 497.54 186.96 505.81 193.8 514.06 200.88 522.33 207.85 530.58 214.78 538.76 221.56 546.93 227.91 555 233.97 562.92 239.73 570.79 244.94 578.44 249.86 585.83 254.53 593.08 258.71 599.99 262.76 606.48 266.75 612.74 270.4 618.5 274.13 623.69 278.01 630.67 283.69 640.59 296.41 643.32 303.64 644.62 311.27 642.68 328.5 639.56 338.06 637.02 344.56 633.86 351.39 630.16 358.54 626.44 365.69 622.34 373.15 617.94 380.89 613.76 388.64 609.54 396.5 605.37 404.47 601.61 412.46 597.98 420.59 594.53 428.85 591.59 437.18 588.84 445.69 586.28 454.39 584.23 463.19 582.32 472.22 580.53 481.47 579.16 490.83 577.82 500.41 576.46 510.16 575.4 519.96 574.22 529.86 572.87 539.76 571.68 549.53 570.23 559.12 568.48 568.37 566.77 577.19 564.69 585.41 562.21 592.82 558.22 602.25 547.89 613.69 541.53 615.25 537.05 614.9 532.12 613.32 526.78 610.64 521.34 607.59 515.51 603.96 509.31 600.05 503.04 596.69 496.43 593.75 489.5 591.56 482.53 590.83 475.28 591.38 467.77 593.37 460.23 597.18 452.46 602.41 444.49 608.88 436.5 616.59 428.32 624.88 419.96 633.23 411.61 641.44 403.29 648.51 395.02 654.02 386.76 658.1 378.55 660.04 370.41 659.75 362.28 657.62 354.22 653.37 346.25 647.25 338.28 639.8 330.4 631.08 322.62 621.49 314.84 611.54 307.16 601.42 299.62 591.45 292.07 582.02 284.65 573.21 277.39 565.16 270.13 558.12 263.04 551.95 256.14 546.61 249.27 542.27 242.6 538.59 236.16 535.42 229.78 532.97 223.65 530.73 217.81 528.55 209.33 525.7 194.19 518.62 187.64 513.9 181.7 508.46 172.22 494.46 168.75 485.97 166.75 480.02 165.23 473.59 164.21 466.73 163.34 459.81 162.95 452.52 163.07 444.89 163.3 437.23 164.02 429.28 165.22 421.06 166.49 412.83 168.2 404.54 170.29 396.2 172.39 387.85 174.85 379.45 177.64 370.99 180.38 362.52 183.42 353.97 186.72 345.36 189.93 336.71 193.4 327.98 197.07 319.19 200.64 310.37 204.41 301.49 208.37 292.61 212.2 283.75 216.22 274.93 220.41 266.23 224.46 257.67 228.7 249.33 233.11 241.32 237.39 233.61 241.86 226.38 246.52 219.73 251.06 213.56 255.8 208.1 260.74 203.45 268.11 197.78 283.83 191.49 292.19 190.66 297.79 190.55 303.62 190.91 309.68 191.61 315.7 192.05 321.96 192.49 328.45 192.77 334.92 192.35 341.62 191.51 348.55 190.18 355.46 187.94 362.61 185.19 369.99 181.99 377.36 178.11 384.97 174.07 392.8 170.08" stroke-dasharray="2 10" transform="rotate(20.200000000000003, 400, 400)" opacity="0.25"></path><path d="M396.82 181.11C404.36 177.15 411.95 173.77 419.59 171.15 427.23 169.05 434.93 168 442.66 168.08 450.41 168.96 458.21 171.01 466.02 174.16 473.86 178.05 481.72 182.87 489.58 188.45 497.47 194.45 505.35 200.94 513.2 207.77 521.05 214.59 528.85 221.49 536.56 228.34 544.24 234.88 551.8 241.23 559.17 247.35 566.48 252.99 573.55 258.38 580.34 263.52 586.98 268.21 593.27 272.72 599.15 277.13 604.8 281.17 609.96 285.2 614.58 289.3 620.75 295.18 629.32 307.76 631.57 314.68 632.55 321.85 630.39 337.94 627.39 346.87 624.99 352.93 622.03 359.36 618.57 366.12 615.11 372.89 611.28 379.99 607.16 387.45 603.24 394.9 599.26 402.53 595.3 410.32 591.7 418.13 588.19 426.12 584.81 434.29 581.88 442.51 579.1 450.92 576.47 459.52 574.29 468.17 572.23 477.03 570.27 486.04 568.69 495.1 567.14 504.28 565.58 513.53 564.3 522.72 562.92 531.88 561.41 540.89 560.07 549.66 558.51 558.12 556.69 566.09 554.95 573.57 552.88 580.36 550.48 586.28 541.83 597.35 524.7 599.4 517.5 595.67 512.5 592.77 507.12 589.51 501.38 586.17 495.59 583.49 489.46 581.31 483.03 579.91 476.55 579.89 469.79 581.05 462.76 583.48 455.71 587.53 448.42 592.8 440.91 599.12 433.38 606.5 425.65 614.34 417.74 622.2 409.82 629.94 401.91 636.65 394.04 641.96 386.17 646.04 378.33 648.2 370.55 648.37 362.78 646.91 355.06 643.48 347.42 638.3 339.79 631.84 332.23 624.08 324.76 615.37 317.3 606.17 309.94 596.6 302.7 586.97 295.47 577.64 288.37 568.69 281.41 560.28 274.48 552.66 267.71 545.74 261.12 539.55 254.57 534.24 248.22 529.57 242.1 525.44 236.04 522.02 230.23 518.93 224.71 516.02 216.69 512.3 202.44 504.51 196.3 499.92 190.74 494.91 181.92 482.38 178.73 474.81 176.9 469.52 175.53 463.75 174.63 457.55 173.86 451.29 173.56 444.62 173.75 437.56 174.03 430.49 174.78 423.05 176 415.29 177.28 407.52 178.97 399.61 181.04 391.59 183.11 383.57 185.53 375.44 188.26 367.22 190.95 359 193.93 350.68 197.16 342.29 200.31 333.89 203.71 325.42 207.31 316.92 210.81 308.45 214.51 299.97 218.39 291.53 222.15 283.19 226.09 274.96 230.2 266.93 234.18 259.1 238.34 251.57 242.66 244.44 246.86 237.65 251.23 231.37 255.78 225.71 260.22 220.51 264.84 216.01 269.65 212.28 276.82 207.83 292.05 203.34 300.12 202.98 308.33 203.23 325.76 204.44 335.01 204.57 341.21 203.89 347.65 202.81 354.3 201.26 360.94 198.88 367.8 196.04 374.89 192.82 381.96 188.98 389.27 185.01 396.81 181.11" stroke-dasharray="1 7" transform="rotate(24.24, 400, 400)" opacity="0.67"></path><path d="M400.93 192.13C408.16 188.28 415.45 184.96 422.77 182.34 430.11 180.18 437.49 178.98 444.89 178.8 452.31 179.36 459.77 181 467.23 183.68 474.71 187.07 482.21 191.36 489.68 196.43 497.17 201.95 504.63 208.03 512.03 214.5 519.43 221.07 526.75 227.82 533.95 234.62 541.12 241.23 548.14 247.74 554.95 254.09 561.68 260.07 568.17 265.85 574.36 271.41 580.41 276.56 586.1 281.54 591.38 286.38 596.44 290.87 601.04 295.29 605.11 299.71 610.53 305.99 617.89 318.91 619.71 325.78 620.41 332.78 618.11 348.21 615.25 356.72 612.99 362.48 610.22 368.59 607 375.05 603.78 381.5 600.22 388.3 596.38 395.47 592.72 402.63 588.98 410 585.22 417.55 581.79 425.11 578.4 432.87 575.11 440.81 572.21 448.76 569.42 456.9 566.75 465.19 564.47 473.5 562.29 481.94 560.18 490.47 558.42 498.98 556.69 507.51 554.94 515.99 553.47 524.35 551.91 532.54 550.24 540.46 548.75 548.09 547.07 555.28 545.18 561.9 542.33 570.72 535.23 583.21 530.85 586.46 526.08 587.64 514.64 584.45 507.97 580.75 500.86 576.75 484.87 569.98 476.06 568.61 470.04 569.24 463.75 570.92 457.19 573.74 450.61 577.96 443.78 583.22 436.73 589.36 429.67 596.4 422.39 603.79 414.92 611.17 407.45 618.44 399.97 624.78 392.5 629.89 385.04 633.93 377.59 636.28 370.19 636.85 362.8 635.97 355.45 633.31 348.16 629.02 340.88 623.51 333.67 616.73 326.55 608.94 319.44 600.56 312.42 591.68 305.52 582.56 298.63 573.52 291.87 564.65 285.25 556.13 278.66 548.16 272.22 540.74 265.97 533.89 259.77 527.79 253.76 522.26 247.98 517.25 242.26 512.9 236.78 508.94 231.58 505.25 224.05 500.46 210.71 491.33 204.98 486.5 199.82 481.52 191.67 469.69 188.75 462.71 186.47 455.25 184.31 438.12 184.44 428.51 184.78 421.96 185.56 415.02 186.78 407.73 188.06 400.43 189.74 392.95 191.76 385.33 193.81 377.72 196.18 369.96 198.84 362.11 201.48 354.26 204.38 346.32 207.54 338.32 210.62 330.34 213.94 322.32 217.46 314.31 220.88 306.36 224.5 298.46 228.3 290.67 231.99 283.02 235.85 275.55 239.87 268.34 243.78 261.36 247.85 254.74 252.08 248.57 256.2 242.74 260.48 237.44 264.92 232.76 271.52 226.7 285.44 218.63 292.78 216.6 300.21 215.57 315.94 215.81 324.26 216.45 329.84 216.54 335.62 216.51 341.61 216.25 347.58 215.32 353.75 214 360.14 212.26 366.51 209.75 373.09 206.84 379.89 203.6 386.68 199.82 393.69 195.94 400.92 192.14" stroke-dasharray="3 7" transform="rotate(28.28, 400, 400)" opacity="0.56"></path><path d="M405.02 203.16C411.93 199.42 418.9 196.17 425.89 193.57 432.9 191.36 439.94 190.02 446.99 189.62 454.06 189.87 461.15 191.13 468.23 193.35 475.33 196.23 482.42 200 489.47 204.53 496.52 209.53 503.53 215.12 510.47 221.16 517.38 227.39 524.2 233.87 530.88 240.49 537.51 247.03 543.97 253.56 550.22 260.02 556.38 266.21 562.29 272.26 567.89 278.14 573.35 283.69 578.46 289.07 583.17 294.32 589.72 301.65 600.04 315.65 603.67 322.54 606.31 329.25 608.22 343.31 607.48 350.82 606.58 355.85 605.12 361.15 603.13 366.75 601.01 372.32 598.44 378.21 595.45 384.41 592.47 390.61 589.17 397.14 585.6 404.02 582.19 410.89 578.68 417.96 575.14 425.2 571.87 432.44 568.62 439.85 565.44 447.41 562.59 454.97 559.81 462.67 557.12 470.46 554.78 478.24 552.5 486.07 550.28 493.9 548.37 501.66 546.48 509.35 544.58 516.88 542.92 524.24 541.2 531.33 539.39 538.06 536.85 547.42 531.04 562.52 527.63 567.82 519.63 572.4 504.53 569.44 498.32 566.03 491.72 562.73 476.9 557.98 468.71 557.66 463.13 558.86 457.28 561 451.17 564.12 445.04 568.46 438.66 573.67 432.06 579.6 425.45 586.28 418.62 593.24 411.6 600.15 404.58 606.95 397.53 612.93 390.48 617.81 383.44 621.79 376.4 624.27 369.4 625.18 362.4 624.83 355.43 622.86 348.53 619.39 341.63 614.8 334.79 608.97 328.04 602.12 321.3 594.64 314.65 586.53 308.11 578.05 301.59 569.49 295.19 560.92 288.93 552.5 282.7 544.43 276.63 536.74 270.74 529.48 264.9 522.79 259.25 516.59 253.82 510.85 248.45 505.7 243.32 500.92 238.46 496.46 231.43 490.55 219.01 479.73 213.71 474.38 208.95 469.09 201.47 457.32 198.82 450.64 196.77 443.6 194.93 427.61 195.15 418.66 195.54 412.56 196.34 406.09 197.56 399.26 198.84 392.43 200.48 385.42 202.47 378.27 204.47 371.12 206.78 363.84 209.37 356.46 211.94 349.11 214.77 341.68 217.84 334.22 220.85 326.8 224.08 319.39 227.51 312.02 230.85 304.75 234.39 297.58 238.09 290.58 241.7 283.74 245.47 277.14 249.4 270.84 253.23 264.8 257.21 259.13 261.34 253.94 267.47 246.89 280.34 236.16 287.1 232.59 293.89 230.1 308.23 228.09 315.78 228.21 323.44 228.4 339.62 228.49 348.16 227.8 353.89 226.62 359.82 225.08 365.94 223.16 372.05 220.55 378.36 217.59 384.87 214.35 391.38 210.64 398.09 206.86 405.01 203.17" stroke-dasharray="4 10" transform="rotate(32.32, 400, 400)" opacity="0.62"></path><path d="M408.93 214.19C415.52 210.57 422.15 207.41 428.8 204.83 435.46 202.59 442.14 201.15 448.82 200.54 455.52 200.51 462.21 201.4 468.89 203.19 475.57 205.58 482.23 208.81 488.83 212.79 495.43 217.24 501.97 222.29 508.41 227.84 514.82 233.62 521.12 239.73 527.26 246.06 533.35 252.4 539.26 258.82 544.95 265.24 550.54 271.5 555.88 277.68 560.91 283.75 565.81 289.57 570.36 295.27 574.53 300.84 578.53 306.14 582.1 311.34 585.2 316.47 589.3 323.8 594.6 338.23 595.73 345.51 595.99 352.74 593.6 367.97 591.03 376.09 589.07 381.55 586.69 387.27 583.93 393.27 581.18 399.25 578.13 405.53 574.82 412.1 571.65 418.67 568.37 425.39 565.04 432.24 561.95 439.09 558.85 446.06 555.78 453.12 553 460.17 550.26 467.28 547.57 474.42 545.19 481.52 542.85 488.59 540.55 495.57 538.52 502.45 536.5 509.17 534.47 515.65 531.73 524.91 526.12 540.94 523.11 547.34 510.58 557.02 494.46 554.55 488.65 551.64 482.5 549.15 468.72 546.41 461.12 547.05 455.94 548.75 450.5 551.27 444.82 554.63 439.11 559.03 433.17 564.14 427.01 569.83 420.85 576.16 414.47 582.68 407.89 589.12 401.31 595.47 394.7 601.09 388.09 605.73 381.47 609.61 374.86 612.19 368.26 613.38 361.68 613.48 355.12 612.13 348.61 609.43 342.12 605.69 335.68 600.78 329.31 594.88 322.97 588.31 316.7 581.06 310.55 573.33 304.42 565.39 298.4 557.28 292.52 549.17 286.68 541.24 280.99 533.52 275.47 526.08 270.01 519.06 264.73 512.4 259.66 506.13 254.66 500.34 249.89 494.89 245.37 489.76 238.85 482.79 227.38 470.16 222.51 464.15 218.13 458.35 211.32 446.14 208.94 439.52 207.11 432.66 205.58 417.44 205.89 409.02 206.31 403.3 207.12 397.25 208.34 390.88 209.6 384.52 211.22 377.99 213.15 371.35 215.1 364.71 217.34 357.97 219.86 351.17 222.35 344.4 225.1 337.59 228.07 330.78 231 324.04 234.13 317.34 237.46 310.74 240.71 304.25 244.15 297.9 247.75 291.77 251.27 285.82 254.95 280.13 258.78 274.78 264.46 267.31 276.41 254.99 282.68 250.31 288.96 246.6 302.16 242.16 309.08 241.27 316.06 240.83 330.76 240.94 338.5 240.99 346.35 240.31 362.9 236.92 371.6 233.97 377.45 231.27 383.49 228.28 389.71 225.07 395.92 221.44 402.33 217.76 408.92 214.19" stroke-dasharray="9 6" transform="rotate(36.36, 400, 400)" opacity="0.64"></path><path d="M412.55 225.22C418.8 221.73 425.08 218.67 431.37 216.13 437.67 213.88 443.97 212.35 450.26 211.56 462.86 211.56 475.4 214.9 487.68 221.25 499.92 229.43 511.8 239.76 523.07 251.46 534.11 263.51 544.33 275.97 553.42 288.34 562.02 300.04 569.24 311.39 574.8 322.39 579.62 332.6 582.62 342.74 583.63 352.98 583.93 362.77 582.36 373.04 578.97 383.92 577.16 389.31 574.97 394.91 572.43 400.71 569.91 406.5 567.1 412.51 564.04 418.76 561.11 425.01 558.06 431.34 554.94 437.74 552.02 444.13 549.08 450.58 546.13 457.05 541 469.92 535.93 482.69 530.98 494.92 526.99 506.68 522.92 517.36 518.65 526.41 512.91 537.17 498.68 544.69 489.5 541.9 483.07 539.59 475.57 536.91 467.05 534.94 458.46 535.84 448.84 539.15 438.28 545.25 432.98 549.65 427.46 554.63 421.73 560.06 415.99 566.02 410.05 572.1 403.92 578.09 397.78 584 391.61 589.25 385.43 593.65 379.25 597.41 373.07 600.04 366.9 601.45 354.59 601.43 342.38 596.4 330.44 587.16 318.6 575.3 307.08 561.12 296.08 545.94 285.24 530.89 275 516.36 265.55 502.88 256.37 490.82 248.07 479.87 240.87 469.81 234.04 460.87 228.37 452.18 224.06 443.35 220.16 434.96 217.64 425.93 216.62 416.06 216.26 408.57 217.51 392.33 219.12 383.57 220.36 377.64 221.94 371.61 223.81 365.5 225.7 359.41 227.87 353.25 230.3 347.08 235.1 334.83 240.83 322.69 247.3 311.02 253.55 299.79 260.49 289.43 267.99 280.36 275.18 272.1 282.96 265.48 291.24 260.76 299.22 256.85 307.78 254.67 316.87 254.05 325.73 253.29 335.21 253.14 345.27 253.04 355.19 251.24 365.78 248.52 377 244.67 382.59 241.92 388.35 238.92 394.27 235.75 400.19 232.21 406.28 228.66 412.54 225.22" stroke-dasharray="9 8" transform="rotate(40.400000000000006, 400, 400)" opacity="0.99"></path><path d="M415.74 236.24C427.56 229.62 439.42 224.93 451.18 222.69 462.95 222.17 474.6 224.68 485.93 229.96 497.2 236.98 508.05 246.15 518.26 256.82 528.23 268.08 537.38 279.99 545.43 292.06 553.04 303.78 559.35 315.34 564.11 326.61 568.26 337.29 570.76 347.84 571.48 358.35 571.62 368.47 570.09 378.86 566.95 389.61 563.59 400.24 558.96 411.44 553.26 423.22 547.98 435.01 542.31 446.85 536.5 458.52 531.52 470.08 526.52 481.24 521.57 491.61 517.44 501.52 513.2 510.19 508.77 517.17 502.76 525.27 488.48 529.76 479.62 527.19 473.48 525.62 466.42 524.07 458.45 523.4 450.43 525.4 441.49 529.53 431.69 535.97 421.86 545.31 411.2 556.09 399.81 567.06 388.43 577.78 376.9 585.52 365.42 589.4 353.98 590.16 342.62 586.48 331.53 578.93 320.54 568.89 309.85 556.4 299.67 542.57 289.66 528.43 280.21 514.31 271.53 500.79 263.09 488.25 255.51 476.57 248.95 465.72 242.72 455.82 237.6 446.32 233.73 436.96 230.24 428.06 228.03 418.83 227.21 409.13 226.73 399.51 227.6 389.2 229.89 378.18 232.37 367.16 236.04 355.99 240.69 344.91 245.32 333.96 250.82 323.31 257.05 313.3 263.08 303.68 269.78 295.02 277.02 287.66 284.01 280.94 291.54 275.73 299.55 272.18 307.31 269.12 315.59 267.46 324.36 266.97 332.93 266.08 342.05 265.53 351.7 264.87 361.23 262.57 371.35 259.41 382.03 255.27 392.66 249.28 403.91 242.71 415.73 236.25" stroke-dasharray="6 8" transform="rotate(44.44, 400, 400)" opacity="0.07"></path><path d="M418.41 247.27C429.5 240.94 440.58 236.35 451.5 233.93 462.42 232.96 473.15 234.69 483.52 238.96 493.81 244.82 503.65 252.78 512.81 262.29 521.77 272.55 529.89 283.66 536.97 295.14 543.65 306.55 549.12 317.98 553.19 329.23 556.74 340.11 558.81 350.85 559.29 361.46 559.32 371.78 557.86 382.19 554.95 392.74 551.9 403.19 547.7 413.94 542.48 424.97 537.63 436 532.35 446.79 526.88 457.13 522.09 467.37 517.21 476.96 512.3 485.58 508.1 493.79 503.75 500.7 499.23 506 493.01 512.05 478.7 514.85 470.12 512.96 464.24 512.28 457.56 511.87 450.08 512.41 442.59 515.36 434.28 520.13 425.2 526.78 416.09 535.81 406.24 545.91 395.71 556.04 385.19 565.94 374.54 573.25 363.93 577.25 353.37 578.65 342.89 576.16 332.66 570.17 322.53 561.89 312.7 551.15 303.36 538.86 294.17 525.95 285.54 512.63 277.62 499.52 269.94 486.97 263.06 475 257.13 463.72 251.52 453.17 246.92 443.08 243.49 433.3 240.38 423.93 238.47 414.52 237.84 404.93 237.51 395.45 238.43 385.58 240.67 375.34 243.08 365.1 246.6 354.98 251.04 345.18 255.47 335.47 260.74 326.26 266.68 317.8 272.48 309.66 278.92 302.52 285.87 296.63 292.61 291.18 299.87 287.08 307.58 284.36 315.08 281.86 323.07 280.44 331.49 279.87 339.75 278.71 348.51 277.69 357.72 276.45 366.84 273.67 376.48 270.12 386.6 265.77 396.69 259.82 407.31 253.46 418.41 247.27" stroke-dasharray="4 5" transform="rotate(48.48, 400, 400)" opacity="0.85"></path><path d="M420.46 258.3C430.81 252.29 441.08 247.82 451.14 245.27 461.19 243.92 471 244.96 480.4 248.28 489.73 253.02 498.57 259.75 506.74 268.03 514.7 277.13 521.87 287.21 528.04 297.86 533.88 308.64 538.6 319.61 542.04 330.54 545.07 341.28 546.77 351.93 547.07 362.41 547.02 372.71 545.65 382.98 543 393.19 540.24 403.34 536.44 413.57 531.71 423.79 527.27 434.02 522.39 443.74 517.26 452.82 512.7 461.79 507.98 469.94 503.17 477.03 496.76 486.54 483.65 497.96 476.57 499.72 469.38 500.26 452.25 500 442.07 501.97 435.06 505.71 427.33 510.95 418.94 517.68 410.52 526.32 401.44 535.72 391.76 545.01 382.08 554.11 372.3 560.97 362.57 564.99 352.88 566.9 343.28 565.44 333.93 560.87 324.67 554.26 315.71 545.27 307.22 534.63 298.86 523.16 291.03 510.98 283.88 498.67 276.95 486.56 270.76 474.75 265.46 463.44 260.43 452.63 256.34 442.25 253.33 432.26 250.61 422.61 248.97 413.1 248.52 403.66 248.32 394.33 249.28 384.89 251.45 375.39 253.78 365.88 257.13 356.74 261.35 348.11 265.56 339.55 270.57 331.63 276.22 324.54 281.75 317.68 287.89 311.8 294.53 307.07 300.99 302.6 307.95 299.28 315.33 297.08 322.53 294.87 330.19 293.45 338.24 292.62 346.15 291.09 354.51 289.55 363.27 287.74 371.95 284.53 381.08 280.66 390.63 276.16 400.14 270.31 410.1 264.19 420.46 258.3" stroke-dasharray="6 4" transform="rotate(52.52, 400, 400)" opacity="0.86"></path><path d="M421.82 269.32C431.41 263.65 440.85 259.35 450.05 256.72 459.22 255.07 468.11 255.5 476.57 257.94 484.95 261.62 492.83 267.13 500.04 274.15 507.08 281.99 513.35 290.9 518.69 300.48 523.76 310.36 527.81 320.58 530.71 330.88 533.29 341.15 534.69 351.4 534.85 361.5 534.74 371.51 533.48 381.42 531.08 391.15 528.62 400.85 525.21 410.45 520.93 419.83 516.9 429.21 512.41 437.92 507.65 445.83 503.34 453.66 498.82 460.57 494.16 466.42 487.82 474.26 474.7 483.51 467.66 485.15 460.57 486.28 444.09 488.67 434.51 492.08 427.95 496.42 420.78 501.97 413.03 508.64 405.27 516.82 396.93 525.51 388.08 533.98 379.23 542.3 370.3 548.68 361.44 552.65 352.62 554.94 343.9 554.33 335.43 551.03 327.04 545.95 318.94 538.65 311.29 529.69 303.76 519.81 296.73 509.02 290.34 497.83 284.14 486.56 278.62 475.33 273.93 464.4 269.48 453.74 265.88 443.42 263.27 433.51 260.9 423.83 259.53 414.39 259.24 405.21 259.16 396.11 260.14 387.13 262.23 378.31 264.46 369.49 267.63 361.24 271.61 353.65 275.59 346.09 280.31 339.26 285.64 333.3 290.88 327.46 296.7 322.55 302.98 318.66 309.14 314.86 315.76 312.01 322.77 310.04 329.64 307.88 336.93 306.28 344.57 305.06 352.1 303.09 360.03 301.04 368.3 298.7 376.5 295.13 385.1 291.02 394.04 286.43 402.95 280.74 412.23 274.89 421.82 269.32" stroke-dasharray="6 1" transform="rotate(56.56, 400, 400)" opacity="0.09"></path><path d="M422.45 280.35C431.25 275.04 439.86 270.94 448.18 268.28 456.49 266.4 464.47 266.3 472.01 267.97 479.47 270.67 486.43 275.03 492.75 280.79 498.92 287.34 504.36 294.96 508.96 303.34 513.33 312.09 516.78 321.3 519.22 330.71 521.4 340.21 522.55 349.77 522.62 359.22 522.49 368.67 521.35 377.99 519.2 387.07 517.02 396.16 513.99 405.02 510.15 413.54 506.52 422.07 502.43 429.82 498.03 436.72 494 443.56 489.72 449.47 485.27 454.38 479.08 461.05 466.14 469.23 459.22 471.19 452.27 473.16 436.48 478.13 427.48 482.7 421.36 487.47 414.71 493.16 407.59 499.67 400.47 507.33 392.85 515.28 384.8 522.95 376.75 530.49 368.67 536.37 360.67 540.23 352.7 542.77 344.85 542.87 337.25 540.65 329.72 536.95 322.48 531.22 315.65 523.91 308.94 515.68 302.69 506.42 297.04 496.57 291.54 486.47 286.69 476.18 282.58 465.99 278.67 455.89 275.55 446 273.31 436.45 271.28 427.04 270.15 417.92 270 409.13 270.02 400.4 271.01 391.92 273.01 383.77 275.13 375.62 278.11 368.16 281.82 361.43 285.56 354.72 289.97 348.77 294.95 343.66 299.88 338.58 305.34 334.35 311.25 330.99 317.05 327.58 323.29 324.93 329.89 322.95 336.39 320.65 343.27 318.75 350.46 317.07 357.57 314.65 365.02 312.11 372.77 309.31 380.47 305.46 388.5 301.19 396.79 296.6 405.07 291.11 413.65 285.58 422.45 280.35" stroke-dasharray="6 1" transform="rotate(60.599999999999994, 400, 400)" opacity="0.64"></path><path d="M422.33 291.38C430.33 286.44 438.1 282.57 445.56 279.94 453 277.91 460.1 277.39 466.75 278.38 473.34 280.21 479.43 283.51 484.91 288.07 490.27 293.34 494.97 299.64 498.89 306.72 502.64 314.21 505.57 322.24 507.61 330.55 509.46 339.03 510.4 347.65 510.41 356.22 510.28 364.85 509.26 373.38 507.37 381.67 505.45 389.97 502.78 398.02 499.36 405.68 496.12 413.34 492.43 420.22 488.41 426.27 484.69 432.29 480.68 437.45 476.48 441.73 470.53 447.67 457.97 455.63 451.25 458.2 444.51 461.1 429.48 468.37 421.07 473.83 415.37 478.83 409.24 484.51 402.73 490.74 396.21 497.82 389.3 505.04 382.03 511.93 374.76 518.71 367.5 524.07 360.34 527.75 353.21 530.42 346.22 531.06 339.47 529.75 332.77 527.24 326.36 522.95 320.35 517.19 314.43 510.58 308.94 502.91 304 494.55 299.19 485.82 294.96 476.74 291.41 467.58 288.02 458.38 285.35 449.25 283.46 440.36 281.75 431.53 280.84 422.95 280.8 414.72 280.92 406.52 281.9 398.63 283.79 391.13 285.78 383.64 288.55 376.88 292 370.86 295.46 364.83 299.55 359.54 304.17 355.02 308.75 350.47 313.82 346.66 319.31 343.55 324.73 340.31 330.55 337.65 336.71 335.48 342.78 332.94 349.21 330.66 355.9 328.5 362.54 325.67 369.48 322.71 376.67 319.54 383.82 315.51 391.24 311.18 398.87 306.66 406.48 301.43 414.33 296.24 422.33 291.38" stroke-dasharray="10 11" transform="rotate(64.64, 400, 400)" opacity="0.08"></path><path d="M421.46 302.41C428.65 297.87 435.58 294.27 442.19 291.71 451.9 289.18 469.22 291.44 476.57 296.07 481.19 300.13 485.2 305.15 488.53 310.92 491.72 317.09 494.2 323.82 495.9 330.9 497.46 338.19 498.25 345.69 498.23 353.22 498.11 360.83 497.23 368.4 495.57 375.77 493.92 383.17 491.59 390.34 488.59 397.15 485.72 403.95 482.42 410.05 478.79 415.41 473.54 423.07 462.16 434.83 456.11 439.12 450.16 443.15 437.29 450.25 430.28 454.13 425.61 457.51 420.61 461.25 415.31 465.42 410.04 470.48 404.43 476 398.51 481.84 392.6 488.31 386.37 494.78 379.86 500.9 373.35 506.93 366.89 511.76 360.56 515.21 354.24 517.9 348.07 518.94 342.15 518.36 336.27 516.85 330.67 513.8 325.44 509.45 320.28 504.37 315.52 498.27 311.26 491.42 307.1 484.18 303.47 476.48 300.44 468.56 297.55 460.51 295.29 452.4 293.73 444.42 292.3 436.43 291.59 428.61 291.66 421.09 291.85 413.58 292.8 406.36 294.57 399.53 296.42 392.7 298.97 386.56 302.13 381.12 305.3 375.65 309.05 370.85 313.28 366.7 317.48 362.49 322.15 358.88 327.19 355.83 332.18 352.6 337.55 349.8 343.21 347.34 348.83 344.52 354.75 341.86 360.91 339.27 367.03 336.09 373.41 332.81 379.99 329.39 386.55 325.28 393.33 320.98 400.26 316.6 407.18 311.69 414.28 306.88 421.46 302.41" stroke-dasharray="8 8" transform="rotate(68.68, 400, 400)" opacity="0.46"></path><path d="M419.87 313.43C432.6 305.31 444.25 300.84 454.3 300.38 464.19 301.86 472.25 307.47 477.94 316.16 483.26 326.22 486.08 338.27 486.09 350.94 485.86 363.98 483.09 376.99 477.81 388.94 472.94 400.89 466.5 410.52 459.16 417.84 452.55 425.39 444.95 431.3 436.67 436.17 428.84 442.6 419.97 449.54 410.23 457.42 400.62 467.9 389.89 479.27 378.37 489.87 366.84 500.21 355.64 505.92 345.36 506.52 335.2 504.35 326.15 497.31 318.83 486.95 311.82 475.12 306.74 461.56 304.11 447.79 301.88 433.85 302.17 420.28 305.35 407.98 308.8 395.68 314.67 385.7 322.29 377.96 329.89 369.88 339.13 363.45 349.41 358.27 359.59 351.76 370.87 345.37 382.75 338.83 394.59 330.21 407.14 321.36 419.87 313.43" stroke-dasharray="7 1" transform="rotate(72.72, 400, 400)" opacity="0.53"></path><path d="M417.62 324.46C428.7 317.19 438.71 312.94 447.24 311.97 455.66 312.34 462.44 316.15 467.16 322.64 471.64 330.21 474 339.71 473.99 350.05 473.85 360.74 471.54 371.69 467.03 382.03 462.83 392.37 457.16 401.07 450.61 408.11 444.58 415.44 437.6 421.75 430 427.45 422.76 434.43 414.63 441.84 405.85 449.8 397.18 459.55 387.66 469.67 377.6 478.84 367.54 487.82 357.89 493.07 349.13 494.26 340.46 493.49 332.83 488.7 326.73 480.96 320.87 471.98 316.68 461.16 314.61 449.73 312.84 438.06 313.23 426.38 316.13 415.5 319.23 404.62 324.46 395.5 331.21 388.09 337.97 380.35 346.19 373.76 355.34 368.06 364.43 361.27 374.47 354.55 384.99 347.88 395.49 339.7 406.54 331.58 417.62 324.46" stroke-dasharray="1 6" transform="rotate(76.76, 400, 400)" opacity="0.95"></path><path d="M414.77 335.49C424.21 329.11 432.64 325.21 439.76 323.92 446.79 323.51 452.4 325.85 456.27 330.44 460 335.82 461.96 342.96 461.96 351.09 461.9 359.49 460.02 368.42 456.25 377.22 452.71 386.02 447.83 393.84 442.12 400.62 436.75 407.65 430.52 414.17 423.72 420.34 417.18 427.44 409.91 434.87 402.16 442.49 394.5 451.26 386.21 460.04 377.58 467.82 368.95 475.45 360.8 480.13 353.5 481.65 346.25 481.86 339.95 478.88 334.98 473.39 330.17 466.96 326.81 458.73 325.23 449.64 323.86 440.31 324.33 430.6 326.9 421.2 329.65 411.8 334.19 403.55 340.04 396.48 345.92 389.14 353.07 382.54 361 376.55 368.92 369.76 377.65 363.04 386.74 356.54 395.84 349.02 405.34 341.74 414.77 335.49" stroke-dasharray="3 6" transform="rotate(80.80000000000001, 400, 400)" opacity="0.16"></path><path d="M411.43 346.52C422.69 339.37 439.92 335.94 445.32 339.63 448.35 343.19 449.97 348.29 450 354.42 450.01 360.73 448.53 367.77 445.47 375.08 442.57 382.39 438.49 389.28 433.66 395.64 429.05 402.19 423.66 408.56 417.78 414.75 412.07 421.54 405.77 428.51 399.13 435.43 392.54 443.02 385.51 450.39 378.31 456.79 371.11 463.09 364.41 467.1 358.48 468.72 350.05 468.73 338.44 456.99 335.98 447.12 334.96 440.02 335.45 432.29 337.68 424.42 340.03 416.55 343.87 409.27 348.79 402.71 353.75 395.95 359.77 389.6 366.44 383.67 373.12 377.21 380.47 370.85 388.08 364.81 395.71 358.15 403.63 351.85 411.43 346.52" stroke-dasharray="10 11" transform="rotate(84.84, 400, 400)" opacity="0.94"></path><path d="M407.71 357.54C424.75 347.67 439.33 359.45 434.69 375.85 430.24 387.56 421.96 399.48 412.14 410.51 402.73 422.91 391.34 435.78 379.77 445.76 368.21 455.5 358.57 457.87 352.54 453.66 346.73 447.98 344.86 437.39 348.46 424.79 352.37 412.18 360.97 400.01 371.68 389.42 382.46 377.63 395.33 366.07 407.71 357.54" stroke-dasharray="2 6" transform="rotate(88.88, 400, 400)" opacity="0.96"></path><path d="M403.72 368.57C416.36 360.79 427.23 367.48 423.91 379.45 420.61 388.27 414.3 398.09 406.75 407.41 399.42 417.34 390.63 427.31 381.91 434.74 369.66 443.13 357.03 435.18 359.24 422.25 362.24 412.83 368.72 402.88 376.77 393.89 384.89 384.36 394.53 375.17 403.72 368.57" stroke-dasharray="8 8" transform="rotate(92.92, 400, 400)" opacity="0.23"></path><path d="M399.62 379.6C411.76 370.54 417.74 373.55 413.13 385.45 408.9 397.33 396.36 414.04 384.66 423.71 372.94 433.14 366.21 429.57 370.02 417.11 374.16 404.63 387.47 388.43 399.62 379.6" stroke-dasharray="7 9" transform="rotate(96.96, 400, 400)" opacity="0.96"></path></g></svg>